<svg width="200" height="201" viewBox="0 0 200 201" fill="none" xmlns="http://www.w3.org/2000/svg">
<path d="M185.036 4.68838e-05H14.9599C6.70743 4.68838e-05 0 6.70923 0 14.96V149.196C0 157.449 6.70919 164.156 14.9599 164.156H53.2899C54.5809 164.156 55.6526 163.085 55.6526 161.794C55.6526 160.502 54.5809 159.431 53.2899 159.431L14.9599 159.433C9.32219 159.433 4.72386 154.834 4.72386 149.196V37.447H195.276V149.196C195.276 154.834 190.677 159.433 185.04 159.433H146.708C145.417 159.433 144.346 160.504 144.346 161.795C144.346 163.086 145.417 164.158 146.708 164.158H185.038C193.291 164.158 199.998 157.449 199.998 149.198L200 14.9617C200 6.70919 193.291 0 185.038 0L185.036 4.68838e-05ZM4.72386 32.7252V14.9617C4.72386 9.32399 9.32088 4.72566 14.9599 4.72566H185.04C190.678 4.72566 195.276 9.32443 195.276 14.9617V32.7252H4.72386Z" fill="url(#paint0_linear_210_29)"/>
<path d="M25.5427 11.6539C21.6369 11.6539 18.4561 14.8345 18.4561 18.7405C18.4561 22.6466 21.6367 25.8272 25.5427 25.8272C29.4488 25.8272 32.6294 22.6466 32.6294 18.7405C32.6294 14.8345 29.4471 11.6539 25.5427 11.6539ZM25.5427 21.1029C24.2516 21.1029 23.18 20.0313 23.18 18.7402C23.18 17.4491 24.2499 16.3775 25.5427 16.3775C26.8338 16.3775 27.9055 17.4491 27.9055 18.7402C27.9037 20.0313 26.8338 21.1029 25.5427 21.1029Z" fill="url(#paint1_linear_210_29)"/>
<path d="M43.3681 11.6539C39.4623 11.6539 36.2814 14.8345 36.2814 18.7405C36.2814 22.6466 39.462 25.8272 43.3681 25.8272C47.274 25.8272 50.4548 22.6466 50.4548 18.7405C50.4548 14.8345 47.305 11.6539 43.3681 11.6539V11.6539ZM43.3681 21.1029C42.077 21.1029 41.0054 20.0313 41.0054 18.7402C41.0054 17.4491 42.077 16.3775 43.3681 16.3775C44.6592 16.3775 45.7308 17.4491 45.7308 18.7402C45.7291 20.0313 44.6901 21.1029 43.3681 21.1029Z" fill="url(#paint2_linear_210_29)"/>
<path d="M61.2241 11.6539C57.3183 11.6539 54.1375 14.8345 54.1375 18.7405C54.1375 22.6466 57.3181 25.8272 61.2241 25.8272C65.1302 25.8272 68.3108 22.6466 68.3108 18.7405C68.3108 14.8345 65.1302 11.6539 61.2241 11.6539ZM61.2241 21.1029C59.933 21.1029 58.8614 20.0313 58.8614 18.7402C58.8614 17.4491 59.933 16.3775 61.2241 16.3775C62.5152 16.3775 63.5868 17.4491 63.5868 18.7402C63.5868 20.0313 62.5152 21.1029 61.2241 21.1029Z" fill="url(#paint3_linear_210_29)"/>
<path d="M110.925 115.652C108.595 111.778 104.532 109.446 99.9965 109.446C95.4613 109.446 91.3976 111.777 89.0678 115.652L50.0452 181.071C47.6825 185.041 47.6207 189.828 49.92 193.859C52.2193 197.89 56.3448 200.284 60.976 200.284H139.055C143.684 200.284 147.842 197.89 150.111 193.859C152.41 189.828 152.346 185.041 149.985 181.071L110.925 115.652ZM145.98 191.527C144.531 194.078 141.949 195.59 139.019 195.59H60.9756C58.0471 195.59 55.463 194.078 54.0145 191.527C52.5657 189.006 52.5965 185.983 54.1088 183.496L93.1314 118.076C94.5802 115.652 97.1624 114.17 99.9968 114.17C102.831 114.17 105.415 115.619 106.862 118.076L145.885 183.496C147.401 185.983 147.431 189.008 145.983 191.527H145.98Z" fill="url(#paint4_linear_210_29)"/>
<path d="M92.9726 129.606C91.1139 131.559 90.1692 134.11 90.3269 136.819L92.153 165.858C92.3742 170.046 95.8377 173.323 100.027 173.323C104.216 173.323 107.681 170.048 107.9 165.858L109.726 136.787C109.852 134.11 108.907 131.559 107.081 129.606C103.334 125.7 96.6578 125.7 92.9729 129.606L92.9726 129.606ZM103.145 165.606C103.051 167.276 101.666 168.598 99.9957 168.598C98.3256 168.598 96.9403 167.274 96.8459 165.575L95.0199 136.536C94.9564 135.151 95.4296 133.86 96.3744 132.852C97.3191 131.843 98.6102 131.308 99.9956 131.308C101.381 131.308 102.641 131.843 103.617 132.852C104.593 133.86 105.066 135.151 104.971 136.505L103.145 165.606Z" fill="url(#paint5_linear_210_29)"/>
<path d="M99.9956 174.93C95.8068 174.93 92.405 178.332 92.405 182.521C92.405 186.71 95.8068 190.112 99.9956 190.112C104.184 190.112 107.586 186.71 107.586 182.521C107.586 178.332 104.184 174.93 99.9956 174.93ZM99.9956 185.419C98.4216 185.419 97.1288 184.128 97.1288 182.552C97.1288 180.978 98.4199 179.685 99.9956 179.685C101.57 179.685 102.862 180.976 102.862 182.552C102.862 184.128 101.571 185.419 99.9956 185.419Z" fill="url(#paint6_linear_210_29)"/>
<path d="M68.313 103.467C69.6041 103.467 70.6757 102.395 70.6757 101.104V86.3017H76.7866C78.0777 86.3017 79.1493 85.2301 79.1493 83.939C79.1493 82.6479 78.0777 81.5763 76.7866 81.5763H70.6757V58.0176C70.6757 57.0094 70.0464 56.1281 69.1017 55.7817C68.157 55.4353 67.1179 55.7182 66.4869 56.5052L45.039 82.4268C44.4406 83.1195 44.3463 84.0968 44.7236 84.9473C45.1008 85.7668 45.9512 86.3018 46.8651 86.3018H65.9519V101.073C65.9502 102.397 67.0218 103.467 68.3129 103.467L68.313 103.467ZM65.9502 64.5693V81.5765H51.8717L65.9502 64.5693Z" fill="url(#paint7_linear_210_29)"/>
<path d="M145.443 55.7805C144.499 55.4341 143.46 55.717 142.829 56.504L121.381 82.4256C120.782 83.1183 120.688 84.0956 121.065 84.9461C121.443 85.7656 122.293 86.3006 123.207 86.3006H142.294V101.072C142.294 102.363 143.365 103.434 144.656 103.434C145.947 103.434 147.019 102.363 147.019 101.072V86.3006H153.13C154.421 86.3006 155.493 85.2289 155.493 83.9379C155.493 82.6468 154.421 81.5751 153.13 81.5751H147.019V58.0164C147.019 57.0099 146.388 56.1269 145.443 55.7805L145.443 55.7805ZM142.294 64.568V81.5752H128.215L142.294 64.568Z" fill="url(#paint8_linear_210_29)"/>
<path d="M86.5158 69.133V89.9826C86.5158 97.4156 92.5631 103.463 99.9961 103.463C107.429 103.463 113.476 97.4156 113.476 89.9826V69.133C113.476 61.7 107.429 55.6527 99.9961 55.6527C92.5631 55.6527 86.5158 61.7 86.5158 69.133ZM108.752 69.133V89.9826C108.752 94.8008 104.816 98.739 99.9961 98.739C95.1778 98.739 91.2397 94.8022 91.2397 89.9826V69.133C91.2397 64.3147 95.1764 60.3766 99.9961 60.3766C104.816 60.3766 108.752 64.2824 108.752 69.133Z" fill="url(#paint9_linear_210_29)"/>
<path d="M139.18 151.561H185.036C186.327 151.561 187.398 150.49 187.398 149.199V47.6852C187.398 46.3941 186.327 45.3224 185.036 45.3224L14.96 45.3242C13.6689 45.3242 12.5972 46.3958 12.5972 47.6869V149.2C12.5972 150.491 13.6689 151.563 14.96 151.563H60.8203C62.1114 151.563 63.1831 150.491 63.1831 149.2C63.1831 147.909 62.1114 146.838 60.8203 146.838H17.3223V50.0515H182.675V146.838H139.181C137.89 146.838 136.818 147.909 136.818 149.2C136.818 150.49 137.89 151.561 139.181 151.561L139.18 151.561Z" fill="url(#paint10_linear_210_29)"/>
<defs>
<linearGradient id="paint0_linear_210_29" x1="0" y1="0" x2="218.859" y2="16.1262" gradientUnits="userSpaceOnUse">
<stop stop-color="#133FDB"/>
<stop offset="1" stop-color="#B7004D" stop-opacity="0.9"/>
</linearGradient>
<linearGradient id="paint1_linear_210_29" x1="18.4561" y1="11.6539" x2="33.9932" y2="12.5935" gradientUnits="userSpaceOnUse">
<stop stop-color="#133FDB"/>
<stop offset="1" stop-color="#B7004D" stop-opacity="0.9"/>
</linearGradient>
<linearGradient id="paint2_linear_210_29" x1="36.2814" y1="11.6539" x2="51.8186" y2="12.5935" gradientUnits="userSpaceOnUse">
<stop stop-color="#133FDB"/>
<stop offset="1" stop-color="#B7004D" stop-opacity="0.9"/>
</linearGradient>
<linearGradient id="paint3_linear_210_29" x1="54.1375" y1="11.6539" x2="69.6746" y2="12.5935" gradientUnits="userSpaceOnUse">
<stop stop-color="#133FDB"/>
<stop offset="1" stop-color="#B7004D" stop-opacity="0.9"/>
</linearGradient>
<linearGradient id="paint4_linear_210_29" x1="48.2336" y1="109.446" x2="161.638" y2="117.266" gradientUnits="userSpaceOnUse">
<stop stop-color="#133FDB"/>
<stop offset="1" stop-color="#B7004D" stop-opacity="0.9"/>
</linearGradient>
<linearGradient id="paint5_linear_210_29" x1="90.3099" y1="126.677" x2="111.671" y2="127.215" gradientUnits="userSpaceOnUse">
<stop stop-color="#133FDB"/>
<stop offset="1" stop-color="#B7004D" stop-opacity="0.9"/>
</linearGradient>
<linearGradient id="paint6_linear_210_29" x1="92.405" y1="174.93" x2="109.047" y2="175.937" gradientUnits="userSpaceOnUse">
<stop stop-color="#133FDB"/>
<stop offset="1" stop-color="#B7004D" stop-opacity="0.9"/>
</linearGradient>
<linearGradient id="paint7_linear_210_29" x1="44.4993" y1="55.636" x2="82.5494" y2="57.3031" gradientUnits="userSpaceOnUse">
<stop stop-color="#133FDB"/>
<stop offset="1" stop-color="#B7004D" stop-opacity="0.9"/>
</linearGradient>
<linearGradient id="paint8_linear_210_29" x1="120.841" y1="55.6348" x2="158.893" y2="57.3031" gradientUnits="userSpaceOnUse">
<stop stop-color="#133FDB"/>
<stop offset="1" stop-color="#B7004D" stop-opacity="0.9"/>
</linearGradient>
<linearGradient id="paint9_linear_210_29" x1="86.5158" y1="55.6527" x2="116.144" y2="56.6632" gradientUnits="userSpaceOnUse">
<stop stop-color="#133FDB"/>
<stop offset="1" stop-color="#B7004D" stop-opacity="0.9"/>
</linearGradient>
<linearGradient id="paint10_linear_210_29" x1="12.5972" y1="45.3224" x2="203.034" y2="64.2723" gradientUnits="userSpaceOnUse">
<stop stop-color="#133FDB"/>
<stop offset="1" stop-color="#B7004D" stop-opacity="0.9"/>
</linearGradient>
</defs>
</svg>
