<svg width="21" height="16" viewBox="0 0 21 16" fill="none" xmlns="http://www.w3.org/2000/svg">
<path d="M0 14.0625C0 15.0117 0.738281 15.75 1.6875 15.75H18.5625C19.4766 15.75 20.25 15.0117 20.25 14.0625V7.875H0V14.0625ZM6.75 11.6719C6.75 11.4609 6.92578 11.25 7.17188 11.25H11.9531C12.1641 11.25 12.375 11.4609 12.375 11.6719V13.0781C12.375 13.3242 12.1641 13.5 11.9531 13.5H7.17188C6.92578 13.5 6.75 13.3242 6.75 13.0781V11.6719ZM2.25 11.6719C2.25 11.4609 2.42578 11.25 2.67188 11.25H5.20312C5.41406 11.25 5.625 11.4609 5.625 11.6719V13.0781C5.625 13.3242 5.41406 13.5 5.20312 13.5H2.67188C2.42578 13.5 2.25 13.3242 2.25 13.0781V11.6719ZM20.25 1.6875C20.25 0.773438 19.4766 0 18.5625 0H1.6875C0.738281 0 0 0.773438 0 1.6875V3.375H20.25V1.6875Z" fill="url(#paint0_linear_411_143)"/>
<defs>
<linearGradient id="paint0_linear_411_143" x1="0" y1="0" x2="22.1458" y2="1.72202" gradientUnits="userSpaceOnUse">
<stop stop-color="#133FDB"/>
<stop offset="1" stop-color="#B7004D" stop-opacity="0.9"/>
</linearGradient>
</defs>
</svg>
