<svg width="18" height="19" viewBox="0 0 18 19" fill="none" xmlns="http://www.w3.org/2000/svg">
<path d="M16.3186 0.161914L0.568646 9.23223C-0.239948 9.68926 -0.169636 10.8846 0.674114 11.2361L5.63115 13.2752V16.8611C5.63115 17.951 6.93193 18.408 7.5999 17.5994L9.74443 14.9979L14.1741 16.826C14.8421 17.1072 15.6155 16.6854 15.721 15.9471L17.971 1.28691C18.1116 0.372852 17.1272 -0.330273 16.3186 0.161914ZM6.75615 16.8611V13.7674L8.65458 14.5408L6.75615 16.8611ZM14.6311 15.8064L7.3538 12.783L14.3851 4.52129C14.5608 4.31035 14.2796 4.0291 14.0686 4.20488L5.1038 11.8689L1.13115 10.2166L16.8811 1.11113L14.6311 15.8064Z" fill="url(#paint0_linear_411_144)"/>
<defs>
<linearGradient id="paint0_linear_411_144" x1="0" y1="0" x2="19.7153" y2="1.19063" gradientUnits="userSpaceOnUse">
<stop stop-color="#133FDB"/>
<stop offset="1" stop-color="#B7004D" stop-opacity="0.9"/>
</linearGradient>
</defs>
</svg>
