<svg width="21" height="18" viewBox="0 0 21 18" fill="none" xmlns="http://www.w3.org/2000/svg">
<path d="M2.8125 12.375H0.5625C0.246094 12.375 0 12.6562 0 12.9375V17.4375C0 17.7539 0.246094 18 0.5625 18H2.8125C3.09375 18 3.375 17.7539 3.375 17.4375V12.9375C3.375 12.6562 3.09375 12.375 2.8125 12.375ZM2.25 16.875H1.125V13.5H2.25V16.875ZM19.6875 6.75H17.4375C17.1211 6.75 16.875 7.03125 16.875 7.3125V17.4375C16.875 17.7539 17.1211 18 17.4375 18H19.6875C19.9688 18 20.25 17.7539 20.25 17.4375V7.3125C20.25 7.03125 19.9688 6.75 19.6875 6.75ZM19.125 16.875H18V7.875H19.125V16.875ZM17.6484 3.12891C17.9297 3.30469 18.2109 3.375 18.5625 3.375C19.4766 3.375 20.25 2.63672 20.25 1.6875C20.25 0.773438 19.4766 0 18.5625 0C17.6133 0 16.875 0.773438 16.875 1.6875C16.875 1.89844 16.9102 2.07422 16.9453 2.25L13.8164 4.78125C13.5352 4.60547 13.2539 4.5 12.9375 4.5C12.5859 4.5 12.3047 4.60547 12.0234 4.78125L8.89453 2.25C8.92969 2.07422 9 1.89844 9 1.6875C9 0.773438 8.22656 0 7.3125 0C6.36328 0 5.625 0.773438 5.625 1.6875C5.625 1.96875 5.66016 2.21484 5.76562 2.42578L2.39062 5.80078C2.17969 5.69531 1.93359 5.625 1.6875 5.625C0.738281 5.625 0 6.39844 0 7.3125C0 8.26172 0.738281 9 1.6875 9C2.60156 9 3.375 8.26172 3.375 7.3125C3.375 7.06641 3.30469 6.82031 3.19922 6.60938L6.57422 3.23438C6.78516 3.33984 7.03125 3.375 7.3125 3.375C7.62891 3.375 7.91016 3.30469 8.19141 3.12891L11.3203 5.66016C11.2852 5.83594 11.25 6.01172 11.25 6.1875C11.25 7.13672 11.9883 7.875 12.9375 7.875C13.8516 7.875 14.625 7.13672 14.625 6.1875C14.625 6.01172 14.5547 5.83594 14.5195 5.66016L17.6484 3.12891ZM18.5625 1.125C18.8438 1.125 19.125 1.40625 19.125 1.6875C19.125 2.00391 18.8438 2.25 18.5625 2.25C18.2461 2.25 18 2.00391 18 1.6875C18 1.40625 18.2461 1.125 18.5625 1.125ZM1.6875 7.875C1.37109 7.875 1.125 7.62891 1.125 7.3125C1.125 7.03125 1.37109 6.75 1.6875 6.75C1.96875 6.75 2.25 7.03125 2.25 7.3125C2.25 7.62891 1.96875 7.875 1.6875 7.875ZM7.3125 2.25C6.99609 2.25 6.75 2.00391 6.75 1.6875C6.75 1.40625 6.99609 1.125 7.3125 1.125C7.59375 1.125 7.875 1.40625 7.875 1.6875C7.875 2.00391 7.59375 2.25 7.3125 2.25ZM12.9375 6.75C12.6211 6.75 12.375 6.50391 12.375 6.1875C12.375 5.90625 12.6211 5.625 12.9375 5.625C13.2188 5.625 13.5 5.90625 13.5 6.1875C13.5 6.50391 13.2188 6.75 12.9375 6.75ZM8.4375 6.75H6.1875C5.87109 6.75 5.625 7.03125 5.625 7.3125V17.4375C5.625 17.7539 5.87109 18 6.1875 18H8.4375C8.71875 18 9 17.7539 9 17.4375V7.3125C9 7.03125 8.71875 6.75 8.4375 6.75ZM7.875 16.875H6.75V7.875H7.875V16.875ZM14.0625 11.25H11.8125C11.4961 11.25 11.25 11.5312 11.25 11.8125V17.4375C11.25 17.7539 11.4961 18 11.8125 18H14.0625C14.3438 18 14.625 17.7539 14.625 17.4375V11.8125C14.625 11.5312 14.3438 11.25 14.0625 11.25ZM13.5 16.875H12.375V12.375H13.5V16.875Z" fill="#858585"/>
</svg>
